<?xml version="1.0" encoding="UTF-8"?>
<svg width="44px" height="44px" viewBox="0 0 44 44" version="1.1" xmlns="http://www.w3.org/2000/svg" xmlns:xlink="http://www.w3.org/1999/xlink">
    <!-- Generator: Sketch 48.2 (47327) - http://www.bohemiancoding.com/sketch -->
    <title>poll-survey</title>
    <desc>Created with Sketch.</desc>
    <defs></defs>
    <g id="Page-1" stroke="none" stroke-width="1" fill="none" fill-rule="evenodd">
        <g id="poll-survey">
            <path d="M18,6 L18,13 L42,13 C42.5522847,13 43,12.5522847 43,12 L43,7 C43,6.44771525 42.5522847,6 42,6 L18,6 Z M22,18 L22,25 L42,25 C42.5522847,25 43,24.5522847 43,24 L43,19 C43,18.4477153 42.5522847,18 42,18 L22,18 Z M12,30 L12,37 L42,37 C42.5522847,37 43,36.5522847 43,36 L43,31 C43,30.4477153 42.5522847,30 42,30 L12,30 Z M2,5 L42,5 C43.1045695,5 44,5.8954305 44,7 L44,12 C44,13.1045695 43.1045695,14 42,14 L2,14 C0.8954305,14 1.3527075e-16,13.1045695 0,12 L0,7 C-1.3527075e-16,5.8954305 0.8954305,5 2,5 Z M2,17 L42,17 C43.1045695,17 44,17.8954305 44,19 L44,24 C44,25.1045695 43.1045695,26 42,26 L2,26 C0.8954305,26 1.3527075e-16,25.1045695 0,24 L0,19 C-1.3527075e-16,17.8954305 0.8954305,17 2,17 Z M2,29 L42,29 C43.1045695,29 44,29.8954305 44,31 L44,36 C44,37.1045695 43.1045695,38 42,38 L2,38 C0.8954305,38 1.3527075e-16,37.1045695 0,36 L0,31 C-1.3527075e-16,29.8954305 0.8954305,29 2,29 Z" id="Rectangle-3" fill="#CCCCCC" fill-rule="nonzero"></path>
            <path d="M19,6 L43,6 L43,13 L19,13 C18.4477153,13 18,12.5522847 18,12 L18,7 C18,6.44771525 18.4477153,6 19,6 Z" id="Path" fill="#F5F5F5" transform="translate(30.500000, 9.500000) scale(-1, 1) translate(-30.500000, -9.500000) "></path>
            <path d="M23,18 L43,18 L43,25 L23,25 C22.4477153,25 22,24.5522847 22,24 L22,19 C22,18.4477153 22.4477153,18 23,18 Z" id="Path" fill="#F5F5F5" transform="translate(32.500000, 21.500000) scale(-1, 1) translate(-32.500000, -21.500000) "></path>
            <path d="M13,30 L43,30 L43,37 L13,37 C12.4477153,37 12,36.5522847 12,36 L12,31 C12,30.4477153 12.4477153,30 13,30 Z" id="Path-Copy" fill="#F5F5F5" transform="translate(27.500000, 33.500000) scale(-1, 1) translate(-27.500000, -33.500000) "></path>
        </g>
    </g>
</svg>