<?xml version="1.0" encoding="UTF-8"?>
<svg width="44px" height="44px" viewBox="0 0 44 44" version="1.1" xmlns="http://www.w3.org/2000/svg" xmlns:xlink="http://www.w3.org/1999/xlink">
    <!-- Generator: Sketch 48.2 (47327) - http://www.bohemiancoding.com/sketch -->
    <title>self-check</title>
    <desc>Created with Sketch.</desc>
    <defs></defs>
    <g id="Page-1" stroke="none" stroke-width="1" fill="none" fill-rule="evenodd">
        <g id="self-check">
            <circle id="Oval-2" fill="#F5F5F5" cx="6" cy="22" r="4"></circle>
            <circle id="Oval-2" fill="#F5F5F5" cx="6" cy="36" r="4"></circle>
            <circle id="Oval-2" fill="#F5F5F5" cx="6" cy="8" r="4"></circle>
            <path d="M6,2 C9.3137085,2 12,4.6862915 12,8 C12,11.3137085 9.3137085,14 6,14 C2.6862915,14 4.05812251e-16,11.3137085 0,8 C-4.05812251e-16,4.6862915 2.6862915,2 6,2 Z M6,16 C9.3137085,16 12,18.6862915 12,22 C12,25.3137085 9.3137085,28 6,28 C2.6862915,28 4.05812251e-16,25.3137085 0,22 C-4.05812251e-16,18.6862915 2.6862915,16 6,16 Z M6,30 C9.3137085,30 12,32.6862915 12,36 C12,39.3137085 9.3137085,42 6,42 C2.6862915,42 4.05812251e-16,39.3137085 0,36 C-4.05812251e-16,32.6862915 2.6862915,30 6,30 Z M6,4 C3.790861,4 2,5.790861 2,8 C2,10.209139 3.790861,12 6,12 C8.209139,12 10,10.209139 10,8 C10,5.790861 8.209139,4 6,4 Z M6,32 C3.790861,32 2,33.790861 2,36 C2,38.209139 3.790861,40 6,40 C8.209139,40 10,38.209139 10,36 C10,33.790861 8.209139,32 6,32 Z M6,18 C3.790861,18 2,19.790861 2,22 C2,24.209139 3.790861,26 6,26 C8.209139,26 10,24.209139 10,22 C10,19.790861 8.209139,18 6,18 Z M6,10.5 C4.61928813,10.5 3.5,9.38071187 3.5,8 C3.5,6.61928813 4.61928813,5.5 6,5.5 C7.38071187,5.5 8.5,6.61928813 8.5,8 C8.5,9.38071187 7.38071187,10.5 6,10.5 Z M15,19 L32,19 C32.5522847,19 33,19.4477153 33,20 C33,20.5522847 32.5522847,21 32,21 L15,21 C14.4477153,21 14,20.5522847 14,20 C14,19.4477153 14.4477153,19 15,19 Z M15,23 L28,23 C28.5522847,23 29,23.4477153 29,24 C29,24.5522847 28.5522847,25 28,25 L15,25 C14.4477153,25 14,24.5522847 14,24 C14,23.4477153 14.4477153,23 15,23 Z M15,5 L43,5 C43.5522847,5 44,5.44771525 44,6 C44,6.55228475 43.5522847,7 43,7 L15,7 C14.4477153,7 14,6.55228475 14,6 C14,5.44771525 14.4477153,5 15,5 Z M15,9 L39,9 C39.5522847,9 40,9.44771525 40,10 C40,10.5522847 39.5522847,11 39,11 L15,11 C14.4477153,11 14,10.5522847 14,10 C14,9.44771525 14.4477153,9 15,9 Z M15,33 L25,33 C25.5522847,33 26,33.4477153 26,34 C26,34.5522847 25.5522847,35 25,35 L15,35 C14.4477153,35 14,34.5522847 14,34 C14,33.4477153 14.4477153,33 15,33 Z M15,37 L21,37 C21.5522847,37 22,37.4477153 22,38 C22,38.5522847 21.5522847,39 21,39 L15,39 C14.4477153,39 14,38.5522847 14,38 C14,37.4477153 14.4477153,37 15,37 Z" id="Rectangle-3" fill="#CCCCCC" fill-rule="nonzero"></path>
        </g>
    </g>
</svg>