<svg width="151" height="148" xmlns="http://www.w3.org/2000/svg">
    <g transform="translate(2 2)" fill="none" fill-rule="evenodd">
        <path d="M104.2 135l-2.3-5.4c-.7-1.6-2.6-2.4-4.2-1.7l-6.3 2.7c-2 .8-4.1-1.1-3.3-3.2l10.7-27.6 20.6 7.9-10.5 27.3c-.9 2-3.9 2-4.7 0z" fill="#FFF"/>
        <path d="M125.2 142.5l2.4-5.5c.7-1.6 2.6-2.3 4.2-1.7l6.3 2.5c2 .8 4-1.2 3.2-3.2l-16.4-42.5-20.6 7.9 16.3 42.2c.8 2.2 3.7 2.3 4.6.3z" fill="#FFF"/>
        <path d="M104.2 135l-2.3-5.4c-.7-1.6-2.6-2.4-4.2-1.7l-6.3 2.7c-2 .8-4.1-1.1-3.3-3.2l10.7-27.6 20.6 7.9-10.5 27.3c-.9 2-3.9 2-4.7 0z" fill="#B2E1B9"/>
        <path d="M125.2 142.5l2.4-5.5c.7-1.6 2.6-2.3 4.2-1.7l6.3 2.5c2 .8 4-1.2 3.2-3.2l-16.4-42.5-20.6 7.9 16.3 42.2c.8 2.2 3.7 2.3 4.6.3z" fill="#B2E1B9"/>
        <path d="M94 112l4.7-12.3 20.6 7.9-10.5 27.3c-.8 2.1-3.7 2.1-4.6.1l-2.3-5.4c-.7-1.6-2.6-2.4-4.2-1.7l-6.3 2.7c-2 .8-4.1-1.1-3.3-3.2l1.4-3.7m1.9-5.1l.7-1.8" stroke="#3FB34F" stroke-width="3" stroke-linecap="round" stroke-linejoin="round"/>
        <path d="M115.2 128.3l5.4 14.1c.8 2.1 3.7 2.1 4.6.1l2.4-5.5c.7-1.6 2.6-2.3 4.2-1.7l6.3 2.5c2 .8 4-1.2 3.2-3.2l-16.4-42.5-20.6 7.9 1.8 4.5" stroke="#3FB34F" stroke-width="3" stroke-linecap="round" stroke-linejoin="round"/>
        <path d="M141.4 99.4H6.1c-3.2 0-5.7-2.6-5.7-5.7v-88C.4 2.5 3 0 6.1 0h135.3c3.2 0 5.7 2.6 5.7 5.7v88c0 3.1-2.5 5.7-5.7 5.7z" fill="#FFF"/>
        <path d="M141.4 99.4H6.1c-3.2 0-5.7-2.6-5.7-5.7v-88C.4 2.5 3 0 6.1 0h135.3c3.2 0 5.7 2.6 5.7 5.7v88c0 3.1-2.5 5.7-5.7 5.7zM47 13.6h53.5m-41.7 8.7h29.9" stroke="#3FB34F" stroke-width="3" stroke-linecap="round" stroke-linejoin="round"/>
        <path stroke-opacity=".4" stroke="#3FB34F" stroke-width="3" stroke-linecap="round" stroke-linejoin="round" d="M83.4 44.7h18.1m-89.5 0h57.3m3.1 13h7.7m-52 0h32.2m-48.3 0h4.4"/>
        <path d="M14.9 85.6c.3-3.7 3-7.1 6.6-8.3 3.6-1.2 7.7 0 10.2 2.9 1.3 1.5 2.6 3.7 4.6 3.5 2.2-.3 2.9-3.1 4.3-4.8 1.1-1.2 2.7-1.8 4.3-1.5 1.6.3 3 1.4 3.6 2.8" stroke="#3FB34F" stroke-width="3" stroke-linecap="round" stroke-linejoin="round"/>
        <path d="M137.4 94.7c-.2 1.2-.9 2.1-2 3-.7.6-1.4 1.1-2.1 1.7-1.2 1-2 2.2-2.5 3.7l-.9 2.4c-.8 2.1-2.4 3.1-4.6 3.2-.9 0-1.7.1-2.6.1-1.4.1-2.7.4-3.9 1.2-1.1.7-2.1 1.4-3.2 2-.3.2-.7.3-1 .4-1.1.3-2.2.2-3.3-.4-.8-.4-1.6-.9-2.4-1.5-1-.7-2-1.2-3.1-1.5-.8-.2-1.7-.3-2.6-.3h-.1c-.8 0-1.7-.1-2.5-.2-1.6-.2-2.7-1.1-3.4-2.5-.4-.8-.8-1.7-1-2.6-.6-2-1.8-3.5-3.4-4.7-.7-.6-1.5-1.1-2.1-1.8-1.3-1.2-1.6-2.7-1.2-4.4.2-.8.3-1.6.6-2.3.7-1.9.7-3.8 0-5.8l-.6-2.1c-.6-2.2.1-4 1.8-5.4.5-.4 1-.9 1.5-1.2 1.6-1.1 2.7-2.7 3.3-4.5.3-.9.7-1.8 1.1-2.7.8-1.6 2.2-2.4 4-2.5 1-.1 2.1-.1 3.1-.2 1.8 0 3.3-.8 4.7-1.8.5-.4 1.1-.7 1.7-1.1 1.9-1.2 3.8-1.2 5.7 0 .8.5 1.5 1 2.3 1.5 1.4.9 2.8 1.3 4.5 1.4 1.2 0 2.3.1 3.5.3 1.4.2 2.5 1.1 3.1 2.4.3.6.6 1.2.8 1.8.7 2.6 2.3 4.6 4.4 6.1.7.5 1.3 1.1 1.8 1.7.8.8 1 1.7 1 3.3-.1.2-.1.6-.2 1-.1.6-.3 1.2-.5 1.9-.5 1.5-.6 3.1-.3 4.6.1.5.2.9.4 1.4.2.7.4 1.4.5 2.1-.2.8-.2 1.6-.3 2.3z" fill="#FFF"/>
        <path d="M137.4 94.7c-.2 1.2-.9 2.1-2 3-.7.6-1.4 1.1-2.1 1.7-1.2 1-2 2.2-2.5 3.7l-.9 2.4c-.8 2.1-2.4 3.1-4.6 3.2-.9 0-1.7.1-2.6.1-1.4.1-2.7.4-3.9 1.2-1.1.7-2.1 1.4-3.2 2-.3.2-.7.3-1 .4-.3-.1-.6-.2-.9-.4-.7-.4-1.5-.8-2.1-1.3-1.6-1.2-3.3-1.7-5.3-1.7h-.4c-.6 0-1.2-.1-1.9-.2-.3 0-.5-.1-.8-.2-1-.3-1.8-1.1-2.3-2.1-.4-.8-.7-1.5-.9-2.3-.5-1.8-1.6-3.1-3.1-4.2-.7-.5-1.3-1-1.9-1.6-1.1-1.1-1.5-2.4-1.1-4 .2-.7.3-1.4.5-2.1.6-1.7.6-3.5 0-5.2-.2-.6-.3-1.3-.5-2-.5-2 .1-3.6 1.7-4.9.5-.4.9-.8 1.4-1.1 1.5-1 2.4-2.4 3-4.1.3-.8.6-1.7 1-2.5.7-1.5 2-2.2 3.6-2.3.9-.1 1.9-.1 2.8-.2 1.6 0 3-.8 4.2-1.6.5-.3 1-.7 1.5-1 1.7-1.1 3.4-1.1 5.2 0 .7.5 1.4.9 2.1 1.4 1.2.8 2.6 1.2 4.1 1.2 1.1 0 2.1.1 3.2.3 1.3.2 2.2 1 2.8 2.2.3.5.6 1.1.7 1.7.6 2.4 2 4.1 4 5.5.6.4 1.1 1 1.6 1.5.3.3.5.7.7 1.1-.1.6-.3 1.2-.5 1.9-.5 1.5-.6 3.1-.3 4.6-.1 1.1 0 2.3.4 3.4.2.6.3 1.3.5 1.9-.3.3-.3.5-.2.6z" fill-opacity=".15" fill="#3FB34F"/>
        <path d="M97.1 68.3c.7-1.2 1.8-1.9 3.2-2.2m29.8 38.5c-.7 2.7-2.4 4-4.9 4.1-.9 0-1.7.1-2.6.1-1.4.1-2.7.4-3.9 1.2-1.1.7-2.1 1.4-3.2 2-1.4.8-2.9.8-4.3 0-.8-.4-1.6-.9-2.4-1.5-1.7-1.3-3.7-1.8-5.8-1.8-.8 0-1.7-.1-2.5-.2-1.6-.2-2.7-1.1-3.4-2.5-.4-.8-.8-1.7-1-2.6-.6-2-1.8-3.4-3.4-4.7-.7-.6-1.5-1.2-2.1-1.8-1.3-1.2-1.6-2.7-1.2-4.4.2-.8.3-1.6.6-2.3.7-1.9.7-3.8 0-5.8l-.6-2.1c-.6-2.2.1-4 1.8-5.4.5-.4 1-.9 1.6-1.2 1.1-.7 1.9-1.6 2.5-2.7m10.7-7.5c1-.3 1.8-.9 2.7-1.4.5-.4 1.1-.7 1.7-1.1 1.9-1.2 3.8-1.2 5.7 0 .8.5 1.6 1 2.3 1.5 1.4.9 2.8 1.3 4.5 1.4 1.2 0 2.3.1 3.5.3 1.4.2 2.5 1.1 3.1 2.4.3.6.6 1.2.8 1.8.7 2.6 2.3 4.6 4.4 6.1.7.5 1.3 1.1 1.8 1.7.8.8 1 1.7 1 3.3-.1.6-.3 1.8-.7 2.9-.7 2-.7 4 0 6 .2.7.4 1.4.5 2.1.6 2.2-.2 3.9-1.9 5.3l-2.7 2.1" stroke="#3FB34F" stroke-width="3" stroke-linecap="round" stroke-linejoin="round"/>
        <circle fill="#FFF" cx="113.2" cy="87.4" r="12.4"/>
        <path d="M102.2 81.5c.1-.2.2-.3.3-.5m22.1 1.4c.7 1.5 1 3.2 1 4.9 0 6.9-5.6 12.4-12.4 12.4-6.6 0-12.1-5.2-12.4-11.8m5.9-11.2c1.9-1.1 4.1-1.8 6.5-1.8 2.4 0 4.6.7 6.4 1.8" stroke="#3FB34F" stroke-width="3" stroke-linecap="round" stroke-linejoin="round"/>
    </g>
</svg>
