<?xml version="1.0" encoding="UTF-8"?>
<svg width="40px" height="40px" viewBox="0 0 40 40" version="1.1" xmlns="http://www.w3.org/2000/svg" xmlns:xlink="http://www.w3.org/1999/xlink">
    <!-- Generator: Sketch 52.5 (67469) - http://www.bohemiancoding.com/sketch -->
    <title>assignment_ontime@</title>
    <desc>Created with Sketch.</desc>
    <g id="11/14" stroke="none" stroke-width="1" fill="none" fill-rule="evenodd">
        <g id="assignment_ontime@" fill="#3FB34F">
            <path d="M18.7816677,22.8104402 L25.254,11.843 L28.154,13.922 L19.846,28 L18.5306713,27.0570454 L11.853,22.804 L13.583,19.5 L18.7816677,22.8104402 Z M20,0 C31.045695,5.68434189e-14 40,8.954305 40,20 C40,31.045695 31.045695,40 20,40 C8.954305,40 0,31.045695 0,20 C0,8.954305 8.954305,5.68434189e-14 20,5.68434189e-14 Z M20,2.969 C10.5940384,2.969 2.969,10.5940384 2.969,20 C2.969,29.4059616 10.5940384,37.031 20,37.031 C29.4059616,37.031 37.031,29.4059616 37.031,20 C37.031,10.5940384 29.4059616,2.969 20,2.969 Z" id="assignment_ontime_"></path>
        </g>
    </g>
</svg>