<?xml version="1.0" encoding="UTF-8"?>
<svg width="29px" height="29px" viewBox="0 0 29 29" version="1.1" xmlns="http://www.w3.org/2000/svg" xmlns:xlink="http://www.w3.org/1999/xlink">
    <!-- Generator: Sketch 46.1 (44463) - http://www.bohemiancoding.com/sketch -->
    <title>Combined Shape</title>
    <desc>Created with Sketch.</desc>
    <defs></defs>
    <g id="Create-Course" stroke="none" stroke-width="1" fill="none" fill-rule="evenodd">
        <g id="Home-Edit" transform="translate(-675.000000, -390.000000)" fill="#3FB34F">
            <path d="M691.871895,405.758686 L689.96201,390.20392 C689.894703,389.655752 690.284519,389.156811 690.832687,389.089505 L690.832687,389.089505 L690.832687,389.089505 C691.380855,389.022198 691.879796,389.412014 691.947102,389.960182 L694.018881,406.833466 C694.073611,407.279209 693.826087,407.692402 693.436946,407.867439 C693.252184,407.959338 693.037452,407.995058 692.818636,407.956475 L685.924982,406.740938 C685.381087,406.645035 685.017919,406.126376 685.113822,405.582482 C685.209725,405.038588 685.728384,404.675419 686.272278,404.771322 L691.871895,405.758686 Z M684.777296,391.954301 L685.034089,394.045712 C681.123747,396.023517 678.442843,400.078949 678.442843,404.760539 C678.442843,411.387956 683.815426,416.760539 690.442843,416.760539 C697.07026,416.760539 702.442843,411.387956 702.442843,404.760539 C702.442843,400.649583 700.375654,397.021445 697.224054,394.858903 L696.915169,392.343236 C701.389054,394.679959 704.442843,399.363623 704.442843,404.760539 C704.442843,412.492525 698.174829,418.760539 690.442843,418.760539 C682.710856,418.760539 676.442843,412.492525 676.442843,404.760539 C676.442843,399.045047 679.867798,394.129497 684.777296,391.954301 Z" id="Combined-Shape" transform="translate(690.442843, 403.921244) rotate(41.000000) translate(-690.442843, -403.921244) "></path>
        </g>
    </g>
</svg>