<?xml version="1.0" encoding="UTF-8"?>
<svg width="100px" height="100px" viewBox="0 0 100 100" version="1.1" xmlns="http://www.w3.org/2000/svg" xmlns:xlink="http://www.w3.org/1999/xlink">
    <!-- Generator: Sketch 48.2 (47327) - http://www.bohemiancoding.com/sketch -->
    <title>Pass</title>
    <desc>Created with Sketch.</desc>
    <defs></defs>
    <g id="Page-1" stroke="none" stroke-width="1" fill="none" fill-rule="evenodd">
        <g id="Pass">
            <rect id="bounding" x="0" y="0" width="100" height="100"></rect>
            <g id="Group-4" transform="translate(13.000000, 15.000000)">
                <path d="M2,33 C1.44771525,33 1,33.4477153 1,34 L1,69 C1,69.5522847 1.44771525,70 2,70 L22.0963855,70 C22.6486703,70 23.0963855,69.5522847 23.0963855,69 L23.0963855,34 C23.0963855,33.4477153 22.6486703,33 22.0963855,33 L2,33 Z M63.8376057,67 C66.2973515,66.111249 67.5240964,63.8957569 67.5240964,60.1114458 L67.5240964,59.5311232 L68.0279574,59.2432026 C71.1282672,57.4715971 72.2400382,54.1362839 71.3052867,48.9951505 L71.2065481,48.4520879 L71.613432,48.0791109 C74.2869844,45.6283546 74.7289291,42.3075824 72.8731378,37.8870877 L72.7174867,37.5163268 L72.8618351,37.1410209 C74.4537411,33.0020654 74.2889323,30.3109033 72.8680557,28.7529121 C71.7850527,27.5653992 69.9168065,27 67.7710843,27 L49.9497299,27 L50.230087,25.7766238 C52.8570484,14.3135193 51.2575066,8.35049939 46.7792061,4.84860444 C46.3325497,4.49933267 45.8602189,4.17390472 45.3122226,3.829999 C45.0959783,3.69429072 44.8752989,3.56006726 44.5979453,3.39456339 C44.5341385,3.35648827 44.0498465,3.06898983 43.9132151,2.987011 C41.8842915,1.76965685 39.9527659,1.64357118 38,2.59828122 L38,16.2389631 L29,33.9949872 L29,64.2005294 C29,64.5360939 29.0844323,64.8662672 29.2455179,65.1606366 C29.9445707,66.4380698 30.7206011,67 31.626506,67 L63.8376057,67 Z" id="Combined-Shape" stroke="#3FB34F" stroke-width="2"></path>
                <path d="M60.5,36 L73.190983,36 C73.4671254,36 73.690983,36.2238576 73.690983,36.5 C73.690983,36.5776225 73.6729105,36.6541791 73.6381966,36.7236068 L73.1381966,37.7236068 C73.0535006,37.8929988 72.880369,38 72.690983,38 L60.5,38 C60.2238576,38 60,37.7761424 60,37.5 L60,36.5 C60,36.2238576 60.2238576,36 60.5,36 Z" id="Rectangle-18" fill="#3FB34F"></path>
                <path d="M60.5,47 L71.5,47 C71.7761424,47 72,47.2238576 72,47.5 L72,48.5 C72,48.7761424 71.7761424,49 71.5,49 L60.5,49 C60.2238576,49 60,48.7761424 60,48.5 L60,47.5 C60,47.2238576 60.2238576,47 60.5,47 Z" id="Rectangle-18" fill="#3FB34F"></path>
                <path d="M60.5,58 L68.7928932,58 C69.0690356,58 69.2928932,58.2238576 69.2928932,58.5 C69.2928932,58.6326082 69.2402148,58.7597852 69.1464466,58.8535534 L68.1464466,59.8535534 C68.0526784,59.9473216 67.9255015,60 67.7928932,60 L60.5,60 C60.2238576,60 60,59.7761424 60,59.5 L60,58.5 C60,58.2238576 60.2238576,58 60.5,58 Z" id="Rectangle-18" fill="#3FB34F"></path>
                <circle id="Oval-2" stroke="#3FB34F" stroke-width="2" cx="12" cy="62" r="3"></circle>
            </g>
        </g>
    </g>
</svg>