<?xml version="1.0" encoding="UTF-8"?>
<svg width="16px" height="16px" viewBox="0 0 16 16" version="1.1" xmlns="http://www.w3.org/2000/svg" xmlns:xlink="http://www.w3.org/1999/xlink">
    <!-- Generator: Sketch 52.5 (67469) - http://www.bohemiancoding.com/sketch -->
    <title>Group 2</title>
    <desc>Created with Sketch.</desc>
    <g id="11/14" stroke="none" stroke-width="1" fill="none" fill-rule="evenodd">
        <g id="Card-System" transform="translate(-1198.000000, -224.000000)" fill="#787878" fill-rule="nonzero">
            <g id="Group-2" transform="translate(1198.000000, 224.000000)">
                <path d="M8,16 C3.581722,16 0,12.418278 0,8 C0,3.581722 3.581722,0 8,0 C12.418278,0 16,3.581722 16,8 C16,12.418278 12.418278,16 8,16 Z M8,14.5 C11.5898509,14.5 14.5,11.5898509 14.5,8 C14.5,4.41014913 11.5898509,1.5 8,1.5 C4.41014913,1.5 1.5,4.41014913 1.5,8 C1.5,11.5898509 4.41014913,14.5 8,14.5 Z M8.89160156,9 L7.11914062,9 L6.84521484,4.14746094 L9.16552734,4.14746094 L8.89160156,9 Z M6.72,11.2532637 C6.72,10.8572652 6.82765443,10.5493919 7.04296651,10.3296345 C7.25827859,10.1098771 7.57127386,10 7.98196172,10 C8.38866232,10 8.69667359,10.1098771 8.90600478,10.3296345 C9.11533597,10.5493919 9.22,10.8572652 9.22,11.2532637 C9.22,11.6449106 9.11134877,11.9506081 8.89404306,12.1703655 C8.67673735,12.3901229 8.37271328,12.5 7.98196172,12.5 C7.58722291,12.5 7.27821483,12.3901229 7.05492823,12.1703655 C6.83164163,11.9506081 6.72,11.6449106 6.72,11.2532637 Z" id="Oval-6"></path>
            </g>
        </g>
    </g>
</svg>