<?xml version="1.0" encoding="UTF-8"?>
<svg width="70px" height="70px" viewBox="0 0 70 70" version="1.1" xmlns="http://www.w3.org/2000/svg" xmlns:xlink="http://www.w3.org/1999/xlink">
    <!-- Generator: Sketch 48.2 (47327) - http://www.bohemiancoding.com/sketch -->
    <title>Settings</title>
    <desc>Created with Sketch.</desc>
    <defs></defs>
    <g id="Final" stroke="none" stroke-width="1" fill="none" fill-rule="evenodd">
        <g id="Settings">
            <path d="M56.8985793,44.557814 C58.1429763,44.773122 59.3134907,45.2040608 60.3702445,45.8107523 L64.1179143,43 L67.1347592,46.0168449 L64.3240069,49.7645147 C64.7713693,50.5437441 65.1231696,51.3848285 65.3634195,52.2717795 L70,52.9341481 L70,57.2006111 L65.3634195,57.8629797 C65.1231696,58.7499307 64.7713693,59.5910151 64.3240069,60.3702445 L67.1347592,64.1179143 L64.1179143,67.1347592 L60.3702445,64.3240069 C59.5910151,64.7713693 58.7499307,65.1231696 57.8629797,65.3634195 L57.2006111,70 L52.9341481,70 L52.2717795,65.3634195 C51.3848285,65.1231696 50.5437441,64.7713693 49.7645147,64.3240069 L46.0168449,67.1347592 L43,64.1179143 L45.8107523,60.3702445 C45.2040608,59.3134907 44.773122,58.1429763 44.557814,56.8985793 L49.80606,55.9443527 C50.224318,58.4724835 52.4206975,60.4004583 55.0673796,60.4004583 C58.0127576,60.4004583 60.4004583,58.0127576 60.4004583,55.0673796 C60.4004583,52.4206975 58.4724835,50.224318 55.9443527,49.80606 L56.8985793,44.557814 Z" id="Mask" stroke="#C5C5C5" fill="#F3F3F3"></path>
            <path d="M41.8779879,17.5026743 L48.1522882,12.7969491 L53.2030509,17.8477118 L48.4973257,24.1220121 C49.246294,25.4265879 49.8352737,26.8347206 50.2374969,28.3196424 L58,29.4285714 L58,36.5714286 L50.2374969,37.6803576 C49.8352737,39.1652794 49.246294,40.5734121 48.4973257,41.8779879 L53.2030509,48.1522882 L48.1522882,53.2030509 L41.8779879,48.4973257 C40.5734121,49.246294 39.1652794,49.8352737 37.6803576,50.2374969 L36.5714286,58 L29.4285714,58 L28.3196424,50.2374969 C26.8347206,49.8352737 25.4265879,49.246294 24.1220121,48.4973257 L17.8477118,53.2030509 L12.7969491,48.1522882 L17.5026743,41.8779879 C16.753706,40.5734121 16.1647263,39.1652794 15.7625031,37.6803576 L8,36.5714286 L8,29.4285714 L15.7625031,28.3196424 C16.1647263,26.8347206 16.753706,25.4265879 17.5026743,24.1220121 L12.7969491,17.8477118 L17.8477118,12.7969491 L24.1220121,17.5026743 C25.4265879,16.753706 26.8347206,16.1647263 28.3196424,15.7625031 L29.4285714,8 L36.5714286,8 L37.6803576,15.7625031 C39.1652794,16.1647263 40.5734121,16.753706 41.8779879,17.5026743 Z M33,41.9285714 C37.9311138,41.9285714 41.9285714,37.9311138 41.9285714,33 C41.9285714,28.0688862 37.9311138,24.0714286 33,24.0714286 C28.0688862,24.0714286 24.0714286,28.0688862 24.0714286,33 C24.0714286,37.9311138 28.0688862,41.9285714 33,41.9285714 Z" id="Mask" stroke="#938CB1" fill="#E6E4F2"></path>
        </g>
    </g>
</svg>